<?xml version="1.0" encoding="UTF-8" standalone="no"?>
<!DOCTYPE svg PUBLIC "-//W3C//DTD SVG 1.1//EN" "http://www.w3.org/Graphics/SVG/1.1/DTD/svg11.dtd">
<svg width="100%" height="100%" viewBox="0 0 980 161" version="1.1" xmlns="http://www.w3.org/2000/svg" xmlns:xlink="http://www.w3.org/1999/xlink" xml:space="preserve" xmlns:serif="http://www.serif.com/" style="fill-rule:evenodd;clip-rule:evenodd;stroke-linejoin:round;stroke-miterlimit:2;">
    <g transform="matrix(1,0,0,1,-38.1309,-460.415)">
        <g>
            <g transform="matrix(1,0,0,1,322.932,592.766)">
                <g transform="matrix(139.652,0,0,139.652,0,0)">
                    <path d="M0.072,0L0.223,0L0.223,-0.565L0.072,-0.565L0.072,0ZM0.059,-0.712C0.059,-0.665 0.097,-0.627 0.145,-0.627C0.196,-0.627 0.234,-0.665 0.234,-0.712C0.234,-0.764 0.196,-0.802 0.145,-0.802C0.097,-0.802 0.059,-0.764 0.059,-0.712Z" style="fill:rgb(39,39,39);fill-rule:nonzero;"/>
                </g>
                <g transform="matrix(139.652,0,0,139.652,41.1973,0)">
                    <path d="M0.545,-0.391C0.545,-0.518 0.482,-0.579 0.372,-0.579C0.313,-0.579 0.254,-0.553 0.22,-0.512L0.216,-0.512L0.186,-0.565L0.068,-0.565L0.068,0L0.219,0L0.219,-0.384C0.236,-0.425 0.272,-0.451 0.316,-0.451C0.367,-0.451 0.394,-0.417 0.394,-0.359L0.394,0L0.545,0L0.545,-0.391Z" style="fill:rgb(39,39,39);fill-rule:nonzero;"/>
                </g>
                <g transform="matrix(139.652,0,0,139.652,168.42,0)">
                    <path d="M0.038,-0.277C0.038,-0.073 0.131,0.011 0.284,0.011C0.404,0.011 0.458,-0.036 0.49,-0.079L0.394,-0.168C0.38,-0.143 0.348,-0.113 0.298,-0.113C0.227,-0.113 0.192,-0.169 0.192,-0.289C0.192,-0.412 0.234,-0.452 0.299,-0.452C0.356,-0.452 0.385,-0.412 0.393,-0.398L0.494,-0.494C0.456,-0.545 0.39,-0.576 0.299,-0.576C0.146,-0.576 0.038,-0.476 0.038,-0.277Z" style="fill:rgb(39,39,39);fill-rule:nonzero;"/>
                </g>
                <g transform="matrix(139.652,0,0,139.652,237.408,0)">
                    <path d="M0.193,-0.286C0.193,-0.401 0.223,-0.457 0.292,-0.457C0.37,-0.457 0.399,-0.395 0.399,-0.278C0.399,-0.163 0.375,-0.107 0.298,-0.107C0.222,-0.107 0.193,-0.169 0.193,-0.286ZM0.293,0.011C0.48,0.011 0.554,-0.11 0.554,-0.284C0.554,-0.459 0.493,-0.575 0.298,-0.575C0.111,-0.575 0.038,-0.454 0.038,-0.28C0.038,-0.105 0.099,0.011 0.293,0.011Z" style="fill:rgb(39,39,39);fill-rule:nonzero;"/>
                </g>
                <g transform="matrix(139.652,0,0,139.652,320.082,0)">
                    <path d="M0.378,-0.556C0.36,-0.561 0.338,-0.568 0.285,-0.568C0.166,-0.568 0.038,-0.491 0.038,-0.253C0.038,-0.069 0.125,0.009 0.244,0.009C0.32,0.009 0.366,-0.03 0.382,-0.046L0.386,-0.046L0.41,0L0.528,0L0.528,-0.758L0.378,-0.758L0.378,-0.556ZM0.289,-0.11C0.231,-0.11 0.191,-0.156 0.191,-0.266C0.191,-0.419 0.245,-0.446 0.307,-0.446C0.335,-0.446 0.368,-0.437 0.382,-0.426L0.382,-0.158C0.361,-0.129 0.331,-0.11 0.289,-0.11Z" style="fill:rgb(39,39,39);fill-rule:nonzero;"/>
                </g>
                <g transform="matrix(139.652,0,0,139.652,403.314,0)">
                    <path d="M0.448,-0.159C0.427,-0.137 0.385,-0.108 0.324,-0.108C0.228,-0.108 0.188,-0.157 0.186,-0.246L0.523,-0.246C0.529,-0.29 0.53,-0.318 0.53,-0.347C0.53,-0.485 0.447,-0.576 0.303,-0.576C0.14,-0.576 0.038,-0.467 0.038,-0.284C0.038,-0.089 0.129,0.011 0.307,0.011C0.415,0.011 0.47,-0.016 0.514,-0.052L0.448,-0.159ZM0.299,-0.462C0.36,-0.462 0.388,-0.427 0.388,-0.361L0.388,-0.346L0.189,-0.346C0.191,-0.412 0.231,-0.462 0.299,-0.462Z" style="fill:rgb(39,39,39);fill-rule:nonzero;"/>
                </g>
            </g>
            <g transform="matrix(139.652,0,0,139.652,150.688,593.098)">
                <path d="M0.247,0.005C0.341,0.005 0.385,-0.016 0.404,-0.03L0.365,-0.143C0.343,-0.126 0.312,-0.118 0.288,-0.118C0.251,-0.118 0.229,-0.138 0.229,-0.177L0.229,-0.45L0.37,-0.45L0.37,-0.565L0.229,-0.565L0.229,-0.707L0.133,-0.707L0.081,-0.574L0.008,-0.544L0.008,-0.45L0.08,-0.45L0.08,-0.181C0.08,-0.044 0.15,0.005 0.247,0.005Z" style="fill:rgb(45,45,45);fill-rule:nonzero;"/>
            </g>
            <g transform="matrix(1,0,0,1,-0.309488,-2.24124)">
                <path d="M265.916,542.858L253.204,595.088L229.044,595.088L208.515,516.185L229.602,516.185L237.982,552.634C239.797,560.873 241.054,567.437 242.032,577.213L242.59,577.213C243.428,568.275 245.104,559.896 246.919,552.773L256.695,516.185L265.916,516.185L265.916,542.858Z" style="fill:rgb(255,159,0);"/>
            </g>
            <g transform="matrix(1,0,0,1,-0.162841,-2.4208)">
                <path d="M245.414,559.167C245.474,558.89 245.534,558.614 245.595,558.34L245.436,559.066L245.414,559.167ZM238.478,554.911C238.769,556.265 239.045,557.584 239.306,558.892C239.044,557.584 238.769,556.265 238.478,554.911ZM242.63,576.794C242.616,576.934 242.603,577.073 242.59,577.213L242.63,576.794ZM241.864,575.595C241.889,575.83 241.914,576.067 241.939,576.305L241.985,576.757C241.945,576.364 241.905,575.977 241.864,575.595ZM241.102,569.388C241.336,571.061 241.555,572.807 241.762,574.664C241.555,572.806 241.336,571.06 241.102,569.388ZM243.308,571.029C243.225,571.632 243.145,572.237 243.069,572.847C243.163,572.101 243.261,571.36 243.365,570.625L243.308,571.029ZM240.856,567.691C240.916,568.089 240.975,568.49 241.033,568.896C240.956,568.361 240.879,567.834 240.799,567.312L240.856,567.691ZM243.786,567.825L243.849,567.43L243.786,567.825ZM244.749,562.406L244.675,562.785L244.749,562.406L244.794,562.174L244.749,562.406ZM239.936,562.174L239.978,562.406L239.936,562.174L239.805,561.462L239.936,562.174ZM242.802,575.128C242.857,574.619 242.915,574.111 242.976,573.604C242.899,574.247 242.826,574.894 242.757,575.543L242.802,575.128ZM246.081,556.201C246.301,555.264 246.524,554.345 246.75,553.445L246.581,554.123C246.356,555.033 246.135,555.961 245.917,556.908L246.081,556.201ZM276.805,516.185L285.324,552.215C287.279,560.454 289.234,568.554 289.653,577.213L290.211,577.213C291.189,568.554 292.865,560.734 294.96,551.936L303.339,516.185L322.052,516.185L301.663,595.088L277.084,595.088L266.052,542.3L253.204,595.088L265.916,542.858L265.916,516.185L276.805,516.185Z" style="fill:rgb(245,0,21);fill-rule:nonzero;"/>
            </g>
        </g>
    </g>
    <g transform="matrix(1,0,0,1,-376.653,-677.891)">
        <g transform="matrix(289.562,0,0,289.562,373.967,854.331)">
            <path d="M0.146,-0.3C0.164,-0.286 0.186,-0.266 0.213,-0.238C0.244,-0.205 0.266,-0.183 0.278,-0.173C0.29,-0.163 0.295,-0.152 0.295,-0.14C0.295,-0.128 0.291,-0.118 0.282,-0.108C0.273,-0.099 0.263,-0.095 0.251,-0.095C0.242,-0.095 0.233,-0.098 0.224,-0.105C0.211,-0.114 0.183,-0.141 0.141,-0.186C0.108,-0.22 0.077,-0.243 0.046,-0.255C0.022,-0.264 0.009,-0.278 0.009,-0.295C0.009,-0.312 0.021,-0.325 0.043,-0.336C0.073,-0.351 0.106,-0.377 0.143,-0.415C0.193,-0.468 0.223,-0.498 0.233,-0.506C0.242,-0.514 0.252,-0.518 0.262,-0.518C0.273,-0.518 0.284,-0.514 0.293,-0.505C0.302,-0.496 0.306,-0.485 0.306,-0.473C0.306,-0.462 0.301,-0.452 0.292,-0.442C0.26,-0.409 0.212,-0.361 0.146,-0.3Z" style="fill:rgb(245,0,21);fill-rule:nonzero;"/>
        </g>
        <g transform="matrix(192,0,0,192,1153.46,830.331)">
            <path d="M0.487,-0.702C0.475,-0.675 0.456,-0.632 0.432,-0.575C0.41,-0.518 0.379,-0.451 0.338,-0.375C0.303,-0.311 0.267,-0.246 0.232,-0.181C0.225,-0.168 0.196,-0.106 0.144,0.005C0.132,0.031 0.112,0.044 0.086,0.044C0.069,0.044 0.055,0.039 0.042,0.028C0.028,0.016 0.021,0.002 0.021,-0.015C0.021,-0.023 0.023,-0.03 0.026,-0.038C0.052,-0.104 0.1,-0.201 0.17,-0.326C0.24,-0.452 0.288,-0.549 0.314,-0.616C0.333,-0.667 0.348,-0.702 0.357,-0.72C0.383,-0.77 0.407,-0.795 0.429,-0.794C0.446,-0.793 0.46,-0.788 0.473,-0.777C0.487,-0.765 0.494,-0.751 0.494,-0.734C0.494,-0.724 0.492,-0.714 0.487,-0.702Z" style="fill:rgb(245,0,21);fill-rule:nonzero;"/>
        </g>
        <g transform="matrix(289.562,0,0,289.562,1251.71,854.331)">
            <path d="M0.359,-0.324C0.359,-0.312 0.353,-0.3 0.341,-0.289C0.264,-0.217 0.183,-0.154 0.098,-0.1C0.089,-0.094 0.08,-0.091 0.072,-0.091C0.06,-0.091 0.05,-0.095 0.041,-0.105C0.033,-0.114 0.028,-0.125 0.028,-0.136C0.028,-0.149 0.035,-0.161 0.047,-0.17L0.237,-0.315C0.208,-0.334 0.172,-0.364 0.129,-0.403C0.077,-0.452 0.051,-0.486 0.051,-0.505C0.051,-0.517 0.056,-0.527 0.065,-0.536C0.074,-0.545 0.084,-0.549 0.096,-0.549C0.108,-0.549 0.119,-0.544 0.129,-0.533C0.203,-0.45 0.27,-0.393 0.331,-0.361C0.35,-0.352 0.359,-0.339 0.359,-0.324Z" style="fill:rgb(245,0,21);fill-rule:nonzero;"/>
        </g>
    </g>
</svg>
